<?xml version="1.0" encoding="utf-8"?>
<!-- Generator: Adobe Illustrator 19.1.0, SVG Export Plug-In . SVG Version: 6.00 Build 0)  -->
<svg version="1.1" id="Layer_1" xmlns="http://www.w3.org/2000/svg" xmlns:xlink="http://www.w3.org/1999/xlink" x="0px" y="0px"
	 viewBox="0 0 300 265.2" style="enable-background:new 0 0 300 265.2;" xml:space="preserve">
<style type="text/css">
	.st0{fill:#BABABA;}
	.st1{fill:none;}
	.st2{fill:#0F9BD7;}
	.st3{fill:#FFFFFF;}
	.st4{fill-rule:evenodd;clip-rule:evenodd;fill:#FFFFFF;}
	.st5{fill:#1DA1F2;}
	.st6{fill:#3D5A98;}
	.st7{fill:#231F20;}
	.st8{fill:#007BB5;}
	.st9{fill:#DC4E41;}
	.st10{fill-rule:evenodd;clip-rule:evenodd;fill:#181616;}
	.st11{fill:#181616;}
</style>
<g>
	<g>
		<path class="st7" d="M289.2,217.2c2.3-0.3,3.5-1.5,3.5-3.7c0-2.6-1.6-3.8-4.8-3.8h-5.2v13.6h1.9v-5.9h2.4l0.1,0.1l3.7,5.8h2.1
			l-4-6L289.2,217.2z M286.9,215.8h-2.3v-4.6h2.9c1.5,0,3.2,0.2,3.2,2.2C290.7,215.6,289,215.8,286.9,215.8z"/>
		<path class="st7" d="M287.2,203.6c-7.2,0-12.8,5.6-12.8,12.8c0,7.2,5.6,12.8,12.8,12.8c7.2,0,12.8-5.6,12.8-12.8
			C300,209.3,294.4,203.6,287.2,203.6z M287.2,227.6c-6.1,0-11-4.8-11-11.2c0-6.3,4.8-11.2,11-11.2c6.2,0,11,4.9,11,11.2
			C298.1,222.8,293.3,227.6,287.2,227.6z"/>
	</g>
	<g>
		<path class="st8" d="M245.6,0h-226C8.8,0,0,8.6,0,19.1v226.9c0,10.6,8.8,19.1,19.6,19.1h226c10.8,0,19.6-8.6,19.6-19.1V19.1
			C265.2,8.6,256.4,0,245.6,0z"/>
		<path class="st3" d="M39.3,99.4h39.3V226H39.3V99.4z M59,36.5c12.6,0,22.8,10.2,22.8,22.8c0,12.6-10.2,22.8-22.8,22.8
			c-12.6,0-22.8-10.2-22.8-22.8C36.2,46.7,46.4,36.5,59,36.5"/>
		<path class="st3" d="M103.3,99.4H141v17.3h0.5c5.3-10,18.1-20.4,37.2-20.4c39.8,0,47.2,26.2,47.2,60.3V226h-39.3v-61.5
			c0-14.7-0.3-33.6-20.4-33.6c-20.5,0-23.6,16-23.6,32.5V226h-39.3V99.4z"/>
	</g>
</g>
</svg>
