<?xml version="1.0" encoding="utf-8"?>
<!-- Generator: Adobe Illustrator 19.1.0, SVG Export Plug-In . SVG Version: 6.00 Build 0)  -->
<svg version="1.1" id="Layer_1" xmlns="http://www.w3.org/2000/svg" xmlns:xlink="http://www.w3.org/1999/xlink" x="0px" y="0px"
	 viewBox="0 0 300 300" style="enable-background:new 0 0 300 300;" xml:space="preserve">
<style type="text/css">
	.st0{fill:#BABABA;}
	.st1{fill:none;}
	.st2{fill:#0F9BD7;}
	.st3{fill:#FFFFFF;}
	.st4{fill-rule:evenodd;clip-rule:evenodd;fill:#FFFFFF;}
	.st5{fill:#1DA1F2;}
	.st6{fill:#3D5A98;}
	.st7{fill:#231F20;}
	.st8{fill:#007BB5;}
	.st9{fill:#DC4E41;}
	.st10{fill-rule:evenodd;clip-rule:evenodd;fill:#181616;}
	.st11{fill:#181616;}
</style>
<g>
	<path id="Blue_1_" class="st6" d="M283.4,300c9.1,0,16.6-7.4,16.6-16.6V16.6C300,7.4,292.6,0,283.4,0H16.6C7.4,0,0,7.4,0,16.6
		v266.9c0,9.1,7.4,16.6,16.6,16.6H283.4z"/>
	<path id="f" class="st3" d="M207,300V183.8h39l5.8-45.3H207v-28.9c0-13.1,3.6-22,22.4-22l24,0V47.1c-4.1-0.6-18.4-1.8-34.9-1.8
		c-34.6,0-58.2,21.1-58.2,59.8v33.4h-39.1v45.3h39.1V300H207z"/>
</g>
</svg>
