<?xml version="1.0" encoding="utf-8"?>
<!-- Generator: Adobe Illustrator 19.2.1, SVG Export Plug-In . SVG Version: 6.00 Build 0)  -->
<svg version="1.1" id="Layer_1" xmlns="http://www.w3.org/2000/svg" xmlns:xlink="http://www.w3.org/1999/xlink" x="0px" y="0px"
	 viewBox="0 0 324.8 432.5" style="enable-background:new 0 0 324.8 432.5;" xml:space="preserve">
<path d="M307.1,102.9c5.5-5.5,9.9-12,12.9-19.2c3.1-7.4,4.7-15.3,4.7-23.5s-1.6-16-4.7-23.5c-3-7.2-7.4-13.6-12.9-19.2
	c-5.5-5.5-12-9.9-19.2-12.9C280.5,1.6,272.6,0,264.5,0c-8.1,0-16,1.6-23.5,4.7c-7.2,3-13.6,7.4-19.2,12.9c-2.4,2.4-4.5,4.9-6.4,7.7
	c-17.1-6.3-35.5-9.7-54.8-9.7c-18.2,0-35.7,3.1-52,8.7c-1.8-2.4-3.7-4.6-5.7-6.7c-5.5-5.5-12-9.9-19.2-12.9C76.3,1.6,68.4,0,60.3,0
	c-8.1,0-16,1.6-23.5,4.7c-7.2,3-13.6,7.4-19.2,12.9c-5.5,5.5-9.9,12-12.9,19.2C1.6,44.3,0,52.2,0,60.3s1.6,16,4.7,23.5
	c3,7.2,7.4,13.6,12.9,19.2l0,0c0.2,0.2,0.4,0.3,0.5,0.5C7.3,125,1.1,149.4,1.1,175.2h0l0,0.4h0c0.1,19.4,3.9,38.3,11.4,56.1
	c7.3,17.3,17.8,32.8,31.1,46.1c11.9,11.9,25.6,21.5,40.7,28.7c-1.4,5.9-2.1,12-2.1,18.2c0,20,7.5,38.8,21,53.4
	c1.6,30.2,26.8,54.4,57.4,54.4c30.7,0,55.8-24.1,57.4-54.4c13.6-14.6,21-33.4,21-53.4c0-6.2-0.7-12.3-2.1-18.2
	c15.1-7.1,28.8-16.8,40.7-28.7c13.3-13.3,23.8-28.9,31.1-46.1c7.5-17.8,11.4-36.6,11.4-56.1l0-0.4c0-24.9-5.7-48.5-16-69.6
	C305.2,104.8,306.2,103.9,307.1,102.9z M231.8,27.6c4.3-4.3,9.2-7.6,14.7-9.9c5.7-2.4,11.8-3.6,18-3.6c6.3,0,12.3,1.2,18,3.6
	c5.5,2.3,10.5,5.7,14.7,9.9c4.3,4.3,7.6,9.2,9.9,14.7c2.4,5.7,3.6,11.8,3.6,18s-1.2,12.3-3.6,18c-2.3,5.4-5.6,10.3-9.8,14.6
	c-16.3-27-40.2-48.6-68.6-62C229.7,29.7,230.7,28.6,231.8,27.6z M294.2,117.3c-13.9-12.5-32.3-20.2-52.4-20.2
	c-43.2,0-78.4,35.2-78.4,78.4c0,39.1,15.2,75.9,42.9,103.5c0.2,0.2,0.4,0.4,0.6,0.6c5.6,5.8,6.3,8.7,6.3,10
	c-0.2,3.2-6.3,7.9-12.7,12.9c-12.2,9.4-30,23.3-39.8,50.1c-9.8-26.8-27.6-40.7-39.8-50.1c-6.4-5-12.5-9.6-12.7-12.9
	c-0.1-1.3,0.6-4.3,6.3-10c0.2-0.2,0.4-0.4,0.6-0.6c27.7-27.7,42.9-64.4,42.9-103.5c0-43.2-35.2-78.4-78.4-78.4
	c-20.1,0-38.5,7.6-52.4,20.2C49.6,65.8,101,29.6,160.7,29.6C220.4,29.6,271.8,65.8,294.2,117.3z M17.6,78.3
	c-2.4-5.7-3.6-11.8-3.6-18s1.2-12.3,3.6-18c2.3-5.5,5.7-10.5,9.9-14.7c4.3-4.3,9.2-7.6,14.7-9.9C48,15.2,54,14,60.3,14
	s12.3,1.2,18,3.6c5.5,2.3,10.5,5.7,14.7,9.9c0.7,0.7,1.4,1.4,2,2.2c-28.7,13-53,34.2-69.7,60.9C22.1,87,19.5,82.8,17.6,78.3z
	 M53.5,267.9c-12-12-21.5-26.1-28.1-41.7c-6.8-16.1-10.3-33.2-10.3-50.8c0.1-35.5,29-64.3,64.4-64.3c35.5,0,64.4,28.9,64.4,64.4
	c0,35.4-13.8,68.6-38.8,93.6c0,0,0,0,0,0c0,0,0,0,0,0c0,0,0,0,0,0c0,0,0,0,0,0c0,0,0,0,0,0c-6.9,7-12.4,15-16.3,23.8
	C75.8,286.8,63.9,278.3,53.5,267.9z M100,303c3.3,3.7,7.7,7.1,12.4,10.7c16.6,12.8,38.9,30.2,41.1,75c-14.5-1.6-27.9-8-38.4-18.5
	c-12.2-12.2-18.9-28.4-18.9-45.6C96.2,317.2,97.5,309.9,100,303z M160.7,418.5c-17.8,0-33.2-10.8-39.9-26.2
	c10,5.9,21.2,9.5,32.9,10.6v0.3h7h7v-0.3c11.7-1,22.9-4.6,32.9-10.6C193.9,407.7,178.5,418.5,160.7,418.5z M206.2,370.3
	c-10.5,10.5-23.9,16.9-38.4,18.5c2.2-44.9,24.6-62.2,41.2-75c4.7-3.6,9.1-7,12.4-10.7c2.5,6.9,3.7,14.2,3.7,21.7
	C225.1,341.9,218.4,358.1,206.2,370.3z M295.9,226.2c-6.6,15.6-16.1,29.6-28.1,41.7c-10.4,10.4-22.2,18.8-35.3,25.2
	c-3.8-8.7-9.3-16.8-16.3-23.8c0,0,0,0,0,0c0,0,0,0,0,0c0,0,0,0,0,0c0,0,0,0,0,0c0,0,0,0,0,0c-25-25-38.8-58.3-38.8-93.6
	c0-35.5,28.9-64.4,64.4-64.4c35.5,0,64.3,28.8,64.4,64.3C306.2,193.1,302.7,210.1,295.9,226.2z"/>
</svg>
