<?xml version="1.0" encoding="utf-8"?>
<!-- Generator: Adobe Illustrator 19.2.1, SVG Export Plug-In . SVG Version: 6.00 Build 0)  -->
<svg version="1.1" id="Layer_1" xmlns="http://www.w3.org/2000/svg" xmlns:xlink="http://www.w3.org/1999/xlink" x="0px" y="0px"
	 viewBox="0 0 653.9 103.3" style="enable-background:new 0 0 653.9 103.3;" xml:space="preserve">
<style type="text/css">
	.st0{fill:#09262B;}
</style>
<g>
	<path class="st0" d="M50.5,24.1c0-3.1-1.7-4.8-4.8-4.8H25.3c-3.1,0-4.8,1.7-4.8,4.8v9.7c0,3.1,1.7,4.1,4.8,4.8l26.4,5.7
		c11.1,2.4,20.4,9.1,20.4,20.4v18.4c0,11.9-8.2,20.2-20.2,20.2H20.2C8.2,103.3,0,95.1,0,83.2V70.1h19.9v9.1c0,3.1,1.7,4.8,4.8,4.8
		h22.1c3.1,0,4.8-1.7,4.8-4.8V68.4c0-3.1-1.7-4.1-4.8-4.8l-26.4-5.7C9.4,55.5,0,48.8,0,37.5V20.2C0,8.2,8.2,0,20.2,0h30.1
		c11.9,0,20.2,8.2,20.2,20.2v11.9H50.5V24.1z"/>
	<path class="st0" d="M110.7,102.8V67.4L79.2,0.6h22.4l19.3,43.7l19.3-43.7h22.4l-31.5,66.8v35.3H110.7z"/>
	<path class="st0" d="M253.5,0.6v102.2h-22l-37.6-69.7v69.7h-19.2V0.6h22l37.6,69.7V0.6H253.5z"/>
	<path class="st0" d="M329.1,0.6c11.9,0,20.2,8.2,20.2,20.2v61.9c0,11.9-8.2,20.2-20.2,20.2h-53.2V0.6H329.1z M324,83.5
		c3.1,0,4.8-1.7,4.8-4.8V24.7c0-3.1-1.7-4.8-4.8-4.8h-27.7v63.6H324z"/>
	<path class="st0" d="M436.1,0.6v19.3h-46.4v21h37.6v19.3h-37.6v23.3h46.4v19.3h-66.8V0.6H436.1z"/>
	<path class="st0" d="M500.7,24.1c0-3.1-1.7-4.8-4.8-4.8h-20.4c-3.1,0-4.8,1.7-4.8,4.8v9.7c0,3.1,1.7,4.1,4.8,4.8l26.4,5.7
		c11.1,2.4,20.4,9.1,20.4,20.4v18.4c0,11.9-8.2,20.2-20.2,20.2h-31.8c-11.9,0-20.2-8.2-20.2-20.2V70.1h19.9v9.1
		c0,3.1,1.7,4.8,4.8,4.8H497c3.1,0,4.8-1.7,4.8-4.8V68.4c0-3.1-1.7-4.1-4.8-4.8l-26.4-5.7c-11.1-2.4-20.4-9.1-20.4-20.4V20.2
		c0-11.9,8.2-20.2,20.2-20.2h30.1c11.9,0,20.2,8.2,20.2,20.2v11.9h-19.9V24.1z"/>
	<path class="st0" d="M541.7,0.6h20.4v102.2h-20.4V0.6z"/>
	<path class="st0" d="M632.3,24.1c0-3.1-1.7-4.8-4.8-4.8H607c-3.1,0-4.8,1.7-4.8,4.8v9.7c0,3.1,1.7,4.1,4.8,4.8l26.4,5.7
		c11.1,2.4,20.4,9.1,20.4,20.4v18.4c0,11.9-8.2,20.2-20.2,20.2h-31.8c-11.9,0-20.2-8.2-20.2-20.2V70.1h19.9v9.1
		c0,3.1,1.7,4.8,4.8,4.8h22.1c3.1,0,4.8-1.7,4.8-4.8V68.4c0-3.1-1.7-4.1-4.8-4.8l-26.4-5.7c-11.1-2.4-20.4-9.1-20.4-20.4V20.2
		C581.8,8.2,590,0,601.9,0H632c11.9,0,20.2,8.2,20.2,20.2v11.9h-19.9V24.1z"/>
</g>
</svg>
